<?xml version="1.0" standalone="no"?>
<!DOCTYPE svg PUBLIC "-//W3C//DTD SVG 20010904//EN"
 "http://www.w3.org/TR/2001/REC-SVG-20010904/DTD/svg10.dtd">
<svg version="1.0" xmlns="http://www.w3.org/2000/svg"
 width="532.000000pt" height="532.000000pt" viewBox="0 0 532.000000 532.000000"
 preserveAspectRatio="xMidYMid meet">
<metadata>
Created by potrace 1.14, written by Peter Selinger 2001-2017
</metadata>
<g transform="translate(0.000000,532.000000) scale(0.100000,-0.100000)"
fill="#000000" stroke="none">
<path d="M2144 4839 c-49 -14 -94 -71 -94 -119 0 -32 6 -44 28 -60 l28 -21
-29 -62 c-76 -159 -136 -541 -144 -914 -6 -234 0 -323 19 -323 6 0 8 45 3 138
-8 160 5 367 41 632 30 222 61 353 111 462 29 64 34 83 23 86 -8 3 -25 16 -38
29 -28 28 -23 54 18 97 23 23 39 30 83 34 50 4 55 2 80 -28 29 -34 34 -69 15
-100 -7 -10 -10 -21 -7 -24 3 -3 42 -1 86 4 45 5 205 14 357 21 213 9 291 9
347 0 39 -6 72 -10 73 -9 56 101 164 137 216 71 54 -69 -9 -153 -102 -138 -39
7 -40 6 -35 -16 3 -13 11 -107 18 -209 17 -271 4 -793 -26 -1002 -4 -28 -2
-38 9 -38 9 0 16 17 20 53 31 262 42 631 27 917 -7 124 -13 234 -14 245 -2 16
6 21 38 25 54 8 82 25 100 60 21 40 19 71 -8 111 -50 74 -143 73 -219 -3 l-41
-41 -166 2 c-162 2 -549 -14 -603 -25 -26 -5 -28 -3 -28 29 0 40 -35 96 -70
114 -29 15 -71 15 -116 2z"/>
<path d="M2147 4772 c-26 -28 -32 -76 -12 -95 23 -24 97 -23 118 1 23 25 21
68 -3 92 -25 25 -81 26 -103 2z"/>
<path d="M3234 4757 c-34 -17 -64 -50 -64 -68 0 -24 47 -59 80 -59 39 0 80 35
80 69 0 46 -56 80 -96 58z"/>
<path d="M2887 4512 c-38 -42 -8 -102 51 -102 33 0 62 29 62 62 0 49 -80 77
-113 40z m43 -37 c0 -8 -6 -15 -14 -15 -17 0 -28 14 -19 24 12 12 33 6 33 -9z"/>
<path d="M2434 4508 c-5 -7 5 -22 24 -37 l31 -25 -37 -32 c-28 -25 -34 -35
-25 -44 9 -10 22 -4 57 26 25 21 46 44 46 50 0 11 -71 74 -83 74 -3 0 -9 -5
-13 -12z"/>
<path d="M2660 4287 c-35 -18 -37 -45 -5 -57 23 -9 26 -14 21 -38 -4 -15 -16
-35 -28 -44 -28 -25 -84 -23 -100 2 -19 30 -40 25 -36 -7 6 -57 128 -63 174
-10 20 24 21 24 43 6 45 -36 171 -9 171 36 0 21 -17 19 -47 -5 -38 -30 -79
-26 -116 11 l-31 31 27 15 c33 17 34 37 5 57 -27 19 -45 20 -78 3z"/>
<path d="M1810 2795 l0 -445 25 0 25 0 0 445 0 445 -25 0 -25 0 0 -445z"/>
<path d="M2787 3183 c-4 -3 -7 -192 -7 -420 l0 -413 24 0 24 0 4 223 c5 234
10 264 55 325 69 93 178 78 233 -33 24 -48 25 -57 28 -288 l3 -238 22 3 c22 3
22 4 22 228 0 254 -7 295 -62 360 -80 94 -183 101 -264 18 l-39 -40 0 141 c0
130 -1 141 -18 141 -10 0 -22 -3 -25 -7z"/>
<path d="M3250 2770 l0 -420 25 0 24 0 3 137 3 136 105 -128 c58 -71 108 -132
111 -137 8 -12 39 1 39 16 0 6 -56 78 -124 160 l-123 150 127 145 c98 112 126
149 118 159 -6 7 -17 12 -23 10 -7 -2 -62 -60 -124 -131 l-111 -127 0 225 0
225 -25 0 -25 0 0 -420z"/>
<path d="M1914 3005 c-4 -8 -5 -117 -3 -242 l4 -228 30 -60 c37 -74 88 -116
149 -122 62 -7 90 2 136 43 l40 36 0 -41 c0 -37 2 -41 25 -41 l25 0 0 335 c0
323 -1 335 -19 335 -18 0 -19 -12 -23 -227 -4 -183 -8 -237 -22 -273 -30 -79
-78 -120 -141 -120 -55 0 -98 29 -126 87 -23 46 -24 59 -27 291 -3 232 -4 242
-23 242 -11 0 -22 -7 -25 -15z"/>
<path d="M3773 3010 c-59 -12 -133 -55 -133 -77 0 -27 23 -30 57 -7 46 31 108
47 157 41 75 -10 136 -103 136 -209 l0 -38 -97 0 c-134 -1 -209 -35 -250 -115
-20 -37 -19 -124 0 -161 56 -109 225 -125 325 -32 l22 21 0 -41 c0 -38 2 -42
26 -42 l26 0 -4 243 -3 243 -30 59 c-49 96 -129 136 -232 115z m217 -418 l0
-88 -42 -41 c-24 -23 -56 -47 -71 -52 -38 -15 -116 -14 -147 2 -37 18 -62 73
-57 124 10 99 79 140 240 142 l77 1 0 -88z"/>
<path d="M1307 3003 c-4 -3 -7 -197 -7 -430 l0 -423 25 0 25 0 0 141 0 141 33
-28 c90 -76 200 -71 279 13 15 15 39 55 55 88 26 55 28 70 28 175 0 105 -2
120 -28 175 -47 100 -116 155 -196 155 -54 0 -82 -12 -130 -56 l-41 -36 0 46
c0 38 -3 46 -18 46 -10 0 -22 -3 -25 -7z m315 -90 c53 -52 80 -127 80 -229 1
-123 -39 -219 -109 -266 -34 -22 -103 -24 -142 -4 -36 19 -89 79 -97 110 -3
13 -4 88 -2 168 3 138 4 146 30 186 66 99 161 113 240 35z"/>
<path d="M2466 2987 c-52 -29 -77 -65 -83 -119 -10 -84 48 -157 171 -217 94
-45 126 -84 126 -153 0 -21 -10 -40 -34 -64 -30 -30 -40 -34 -88 -34 -43 0
-64 6 -100 29 -40 25 -48 28 -59 15 -16 -20 4 -41 66 -70 130 -61 260 8 258
137 -1 83 -50 139 -165 193 -31 15 -72 44 -92 66 -30 33 -36 48 -36 83 1 45
10 63 50 90 45 31 138 17 191 -29 14 -12 18 -12 33 5 16 18 16 20 -13 40 -77
55 -160 66 -225 28z"/>
<path d="M1677 1913 c-4 -3 -7 -28 -7 -55 0 -45 -2 -49 -20 -43 -52 17 -94
-36 -65 -81 13 -20 23 -24 60 -22 l45 1 0 104 c0 103 -1 109 -13 96z m-9 -144
c4 -31 -20 -53 -47 -44 -23 7 -34 31 -25 57 4 15 13 18 37 16 26 -2 33 -8 35
-29z"/>
<path d="M2190 1860 c0 -57 -1 -60 -19 -50 -43 22 -81 -1 -81 -49 0 -38 20
-52 69 -49 l41 3 0 103 c0 56 -2 102 -5 102 -3 0 -5 -27 -5 -60z m-2 -92 c4
-18 -23 -48 -43 -48 -15 0 -45 27 -45 41 0 5 9 18 21 30 18 18 23 19 42 6 12
-8 23 -21 25 -29z"/>
<path d="M3760 1816 c0 -64 4 -106 10 -106 6 0 10 40 10 99 0 56 -4 103 -10
106 -6 4 -10 -32 -10 -99z"/>
<path d="M3820 1816 c0 -64 4 -106 10 -106 6 0 10 40 10 99 0 56 -4 103 -10
106 -6 4 -10 -32 -10 -99z"/>
<path d="M1160 1810 c0 -99 16 -141 22 -57 3 37 6 42 28 42 22 0 25 -5 28 -42
4 -52 22 -58 22 -7 0 55 -16 77 -51 70 -29 -5 -29 -5 -29 44 0 28 -4 50 -10
50 -6 0 -10 -40 -10 -100z"/>
<path d="M3022 1898 c-15 -15 -16 -55 -1 -64 7 -4 2 -15 -15 -31 -54 -50 -21
-94 66 -90 49 2 55 4 47 19 -5 10 -4 28 2 48 6 17 9 34 5 37 -3 3 -11 -8 -17
-25 l-11 -32 -35 45 c-42 56 -42 91 0 88 15 -1 25 2 22 8 -9 13 -49 11 -63 -3z
m48 -128 l21 -30 -24 -11 c-46 -21 -89 25 -55 59 19 19 35 14 58 -18z"/>
<path d="M2470 1841 c0 -11 -6 -22 -12 -25 -10 -5 -10 -7 0 -12 7 -3 12 -24
12 -50 0 -24 5 -44 10 -44 6 0 10 20 10 45 0 36 3 45 18 45 16 1 16 1 0 14
-10 7 -18 21 -18 30 0 9 -4 16 -10 16 -5 0 -10 -9 -10 -19z"/>
<path d="M3260 1850 c0 -5 5 -10 10 -10 6 0 10 5 10 10 0 6 -4 10 -10 10 -5 0
-10 -4 -10 -10z"/>
<path d="M1306 1804 c-20 -19 -21 -68 -2 -83 8 -6 32 -10 55 -9 l41 3 0 55 c0
35 -3 50 -9 41 -6 -9 -11 -10 -15 -2 -10 16 -52 13 -70 -5z m74 -23 c18 -36
-11 -68 -50 -56 -42 13 -29 75 15 75 14 0 29 -8 35 -19z"/>
<path d="M1452 1765 c1 -37 3 -47 5 -25 5 42 19 60 44 60 16 0 19 -8 19 -45 0
-25 5 -45 11 -45 6 0 9 19 7 46 -4 55 -26 77 -57 57 -15 -10 -21 -10 -24 0 -3
7 -5 -15 -5 -48z"/>
<path d="M1737 1814 c-10 -11 -9 -104 2 -104 5 0 11 19 13 43 5 43 -3 73 -15
61z"/>
<path d="M1765 1810 c-4 -6 5 -10 19 -10 24 0 26 -3 26 -45 0 -57 18 -59 22
-2 2 35 7 43 26 45 20 3 22 -1 22 -42 0 -25 5 -46 10 -46 6 0 10 20 10 44 0
54 -19 74 -55 58 -15 -7 -26 -8 -30 -2 -8 13 -42 13 -50 0z"/>
<path d="M1956 1804 c-20 -19 -21 -68 -2 -83 8 -6 32 -10 55 -9 l41 3 0 55 c0
35 -3 50 -9 41 -6 -9 -11 -10 -15 -2 -10 16 -52 13 -70 -5z m74 -23 c18 -36
-11 -68 -50 -56 -42 13 -29 75 15 75 14 0 29 -8 35 -19z"/>
<path d="M2257 1802 c-20 -22 -22 -63 -5 -80 15 -15 65 -16 74 0 5 8 2 9 -11
4 -20 -7 -55 1 -55 13 0 4 18 13 40 20 41 12 50 27 28 49 -18 18 -53 15 -71
-6z m63 -11 c0 -11 -59 -36 -67 -28 -3 4 0 13 7 22 13 16 60 21 60 6z"/>
<path d="M2557 1802 c-20 -22 -22 -63 -5 -80 20 -20 76 -15 88 7 15 29 12 56
-8 74 -24 22 -55 21 -75 -1z m71 -38 c3 -34 -16 -49 -48 -39 -44 14 -28 78 18
73 22 -2 28 -9 30 -34z"/>
<path d="M2670 1817 c0 -3 9 -26 21 -51 14 -32 18 -57 14 -76 -4 -17 -4 -30 0
-30 9 0 65 129 64 148 0 10 -11 -5 -23 -32 l-23 -49 -16 41 c-13 33 -37 65
-37 49z"/>
<path d="M2812 1808 c-19 -19 -14 -38 13 -48 14 -5 25 -17 25 -26 0 -12 -6
-15 -25 -10 -15 4 -25 2 -25 -4 0 -7 14 -10 33 -8 42 4 50 39 12 56 -33 15
-32 32 3 32 21 0 24 2 12 10 -20 13 -34 12 -48 -2z"/>
<path d="M3260 1756 c0 -35 -3 -73 -7 -83 -6 -16 -5 -16 10 -4 13 10 17 30 17
82 0 39 -4 69 -10 69 -6 0 -10 -28 -10 -64z"/>
<path d="M3327 1802 c-36 -39 -10 -92 44 -92 16 0 29 4 29 8 0 4 -12 8 -27 7
-42 0 -37 20 8 38 42 16 42 17 24 37 -23 25 -57 26 -78 2z m66 -9 c4 -4 -7
-13 -24 -20 -35 -15 -44 -12 -36 12 6 15 48 21 60 8z"/>
<path d="M3441 1810 c-1 -18 36 -100 43 -100 3 0 12 14 19 32 l13 32 13 -32
c7 -18 16 -32 20 -32 5 0 20 32 50 104 2 5 -2 6 -8 2 -6 -4 -18 -24 -27 -44
l-16 -37 -19 43 c-10 23 -21 42 -25 42 -3 0 -4 -7 0 -15 3 -8 0 -27 -6 -41
l-12 -25 -22 43 c-13 24 -23 36 -23 28z"/>
<path d="M3637 1802 c-36 -39 -10 -92 44 -92 16 0 29 4 29 8 0 4 -12 8 -27 7
-42 0 -37 20 8 38 42 16 42 17 24 37 -23 25 -57 26 -78 2z m66 -9 c4 -4 -7
-13 -24 -20 -35 -15 -44 -12 -36 12 6 15 48 21 60 8z"/>
<path d="M3887 1802 c-36 -39 -10 -92 44 -92 16 0 29 4 29 8 0 4 -12 8 -27 7
-42 0 -37 20 8 38 42 16 42 17 24 37 -23 25 -57 26 -78 2z m66 -9 c4 -4 -7
-13 -24 -20 -35 -15 -44 -12 -36 12 6 15 48 21 60 8z"/>
<path d="M4010 1768 c0 -32 4 -58 10 -58 6 0 10 18 10 41 0 32 4 42 20 46 11
3 20 9 20 14 0 11 -11 11 -30 -1 -9 -6 -17 -5 -22 3 -4 7 -8 -14 -8 -45z"/>
<path d="M4090 1810 c0 -6 10 -30 21 -53 18 -34 20 -47 11 -70 -7 -19 -7 -27
0 -25 11 4 68 132 68 151 -1 7 -11 -8 -24 -33 l-23 -44 -22 42 c-21 42 -31 52
-31 32z"/>
</g>
</svg>
