<svg width="72" height="24" viewBox="0 0 72 24" fill="none" xmlns="http://www.w3.org/2000/svg">
<path d="M13.7038 0C13.6066 0.0015672 13.514 0.0412659 13.4459 0.110529C13.3777 0.179792 13.3395 0.273067 13.3395 0.370233V18.037C13.3395 18.0856 13.3491 18.1337 13.3677 18.1786C13.3863 18.2236 13.4136 18.2644 13.448 18.2988C13.4824 18.3331 13.5232 18.3604 13.5681 18.379C13.613 18.3976 13.6611 18.4072 13.7098 18.4072H15.8595C15.9081 18.4072 15.9563 18.3976 16.0012 18.379C16.0461 18.3604 16.0869 18.3331 16.1213 18.2988C16.1557 18.2644 16.183 18.2236 16.2016 18.1786C16.2202 18.1337 16.2297 18.0856 16.2297 18.037H16.2238V0.370233C16.2238 0.272041 16.1848 0.177871 16.1153 0.108439C16.0459 0.0390067 15.9517 0 15.8535 0H13.7038ZM18.7527 0C18.6545 0 18.5603 0.0390067 18.4909 0.108439C18.4215 0.177871 18.3825 0.272041 18.3825 0.370233V18.037C18.3825 18.0856 18.3921 18.1337 18.4107 18.1786C18.4293 18.2236 18.4565 18.2644 18.4909 18.2988C18.5253 18.3331 18.5661 18.3604 18.611 18.379C18.6559 18.3976 18.7041 18.4072 18.7527 18.4072H20.9025C21.0001 18.4064 21.0935 18.3671 21.1623 18.2977C21.2311 18.2284 21.2697 18.1346 21.2697 18.037V0.370233C21.2697 0.273067 21.2315 0.179792 21.1634 0.110529C21.0952 0.0412659 21.0026 0.0015672 20.9054 0H18.7527ZM56.5733 5.30271C55.1045 5.29375 53.6915 5.86453 52.6411 6.89113C52.1292 7.36928 51.7235 7.94968 51.4504 8.5947C51.1773 9.23971 51.0428 9.93493 51.0556 10.6353V18.0399C51.0564 18.1371 51.0953 18.2301 51.164 18.2988C51.2328 18.3675 51.3257 18.4064 51.4229 18.4072H53.5726C53.6708 18.4072 53.765 18.3682 53.8344 18.2988C53.9038 18.2293 53.9428 18.1352 53.9428 18.037V10.7905C53.9428 8.54524 55.4357 7.46738 57.8661 7.966C57.9287 7.98581 57.9952 7.98945 58.0595 7.97659C58.1238 7.96372 58.1838 7.93476 58.2339 7.89242C58.284 7.85008 58.3226 7.79573 58.346 7.73446C58.3694 7.67319 58.3769 7.60698 58.3677 7.54202V6.06407C58.3677 5.67593 58.3259 5.52664 58.0692 5.44304C57.5758 5.35136 57.0751 5.3044 56.5733 5.30271V5.30271ZM42.7612 5.30271C41.763 5.30311 40.7781 5.53173 39.8819 5.97107C38.9856 6.41042 38.2016 7.04886 37.5899 7.83761C36.7777 9.01265 36.3427 10.4072 36.3427 11.8355C36.3427 13.2639 36.7777 14.6584 37.5899 15.8335C38.1917 16.6332 38.9737 17.2796 39.8723 17.7201C40.7709 18.1605 41.7607 18.3827 42.7612 18.3684C44.0724 18.3724 45.3551 17.9858 46.4456 17.2577V18.8401C46.4456 20.9809 44.5735 21.3721 43.3703 21.4467C42.5459 21.474 41.7206 21.4291 40.904 21.3123C40.5756 21.2616 40.3427 21.3123 40.3427 21.6676V23.5666C40.3474 23.6524 40.3857 23.7329 40.4495 23.7905C40.5133 23.8481 40.5973 23.8782 40.6831 23.8741C43.4688 24.113 45.3409 24.0652 46.7502 23.2591C47.7395 22.6766 48.4746 21.7444 48.8103 20.6465C49.0578 19.7993 49.1756 18.9195 49.1597 18.037V11.8355H49.1656C49.1932 10.4048 48.7621 9.00276 47.9355 7.83463C47.3232 7.04603 46.5386 6.40791 45.6417 5.96907C44.7449 5.53024 43.7596 5.3023 42.7612 5.30271V5.30271ZM6.17073 5.30868C4.63528 5.30254 3.12576 5.70439 1.79659 6.47312C1.75525 6.49769 1.72108 6.53268 1.6975 6.5746C1.67392 6.61652 1.66176 6.66389 1.66223 6.71198L1.77569 8.59301C1.78561 8.65196 1.81115 8.70718 1.84965 8.75291C1.88816 8.79864 1.93821 8.83321 1.99461 8.85303C2.05101 8.87284 2.11169 8.87718 2.17034 8.86558C2.22898 8.85398 2.28345 8.82688 2.32806 8.78708C4.20013 7.6316 6.4484 7.41662 7.59493 7.99586C7.91016 8.17753 8.16988 8.44173 8.34612 8.76003C8.52237 9.07832 8.60847 9.43865 8.59516 9.80224V10.0769H5.46907C4.12548 10.0769 0.00513836 10.5756 0.00513836 14.3585V14.4003C-0.0253813 14.9764 0.0803754 15.5516 0.313824 16.0792C0.547273 16.6068 0.901834 17.0719 1.34873 17.4368C2.32185 18.1226 3.49821 18.4593 4.68681 18.3923H11.0106C11.0595 18.3923 11.1079 18.3826 11.153 18.3638C11.1981 18.345 11.2391 18.3175 11.2735 18.2828C11.3079 18.2481 11.3351 18.2069 11.3536 18.1616C11.372 18.1164 11.3813 18.0679 11.3809 18.019V10.5248L11.3749 10.5367C11.3749 8.83486 10.9957 7.53904 10.1746 6.6463C9.35653 5.75057 7.70541 5.30271 6.17371 5.30271L6.17073 5.30868ZM29.182 5.30868C25.3602 5.30868 23.6882 7.87046 23.1507 10.0411C23.0031 10.6268 22.9289 11.2286 22.9298 11.8326C22.9101 13.2603 23.3405 14.6581 24.1599 15.8275C24.7724 16.6164 25.5569 17.255 26.4536 17.6948C27.3503 18.1346 28.3355 18.364 29.3342 18.3654C31.3974 18.4371 32.7768 18.0877 33.8308 17.4876C33.9334 17.4214 34.0127 17.3248 34.0577 17.2113C34.1027 17.0978 34.111 16.9731 34.0816 16.8546V15.1885C34.0816 14.8482 33.8756 14.6899 33.583 14.8959C32.348 15.6863 30.8829 16.0376 29.4238 15.8932C28.593 15.8821 27.795 15.5675 27.1802 15.0087C26.5653 14.4499 26.176 13.6856 26.0857 12.8597H34.5802C34.6723 12.8597 34.7607 12.8233 34.8262 12.7584C34.8916 12.6935 34.9288 12.6054 34.9295 12.5133C35.0788 10.1904 34.407 5.30868 29.182 5.30868V5.30868ZM65.2499 5.30868C64.2525 5.30918 63.2684 5.53755 62.3727 5.97636C61.4769 6.41516 60.6933 7.0528 60.0816 7.8406C59.2606 9.0115 58.8301 10.4116 58.8514 11.8415C58.8307 13.2704 59.2612 14.6694 60.0816 15.8394C60.6936 16.6281 61.4779 17.2664 62.3745 17.7055C63.271 18.1446 64.2561 18.3728 65.2544 18.3728C66.2527 18.3728 67.2378 18.1446 68.1343 17.7055C69.0309 17.2664 69.8152 16.6281 70.4272 15.8394C71.2478 14.6684 71.6783 13.2684 71.6574 11.8385C71.6776 10.4097 71.2472 9.01085 70.4272 7.8406C69.8149 7.052 69.0303 6.41388 68.1335 5.97504C67.2366 5.53621 66.2513 5.30827 65.2529 5.30868H65.2499ZM42.7612 7.79581C46.2157 7.79581 46.3322 11.319 46.3322 11.8296C46.3322 12.3401 46.2157 15.8633 42.7612 15.8633C41.2175 15.8633 40.1039 14.7347 39.6351 13.3284C39.303 12.3568 39.303 11.3024 39.6351 10.3307C40.1039 8.92742 41.2175 7.79581 42.7612 7.79581ZM29.1879 7.80776C29.5536 7.78545 29.9199 7.84167 30.262 7.97262C30.6042 8.10358 30.9144 8.30624 31.1718 8.567C31.4291 8.82776 31.6277 9.14058 31.7542 9.48444C31.8807 9.82831 31.9321 10.1952 31.905 10.5606H26.1365C26.154 10.1783 26.2473 9.80323 26.4109 9.45724C26.5746 9.11124 26.8053 8.80119 27.0898 8.54509C27.3742 8.28899 27.7067 8.09193 28.0679 7.96536C28.4291 7.83878 28.8118 7.78521 29.1939 7.80776H29.1879ZM65.2499 7.80776C66.7876 7.77193 67.9072 8.93637 68.379 10.3397C68.7102 11.3104 68.7102 12.3636 68.379 13.3344V13.3404C67.9072 14.7437 66.7936 15.8394 65.2499 15.8723C63.7033 15.9081 62.5926 14.7437 62.1238 13.3404C61.791 12.3678 61.791 11.3122 62.1238 10.3397C62.5956 8.93637 63.7063 7.8406 65.2499 7.80776V7.80776ZM5.64225 12.361H8.59815V16.0813H4.86595C4.38639 16.0676 3.92302 15.9048 3.54028 15.6155C3.34296 15.4776 3.18258 15.2932 3.07324 15.0787C2.9639 14.8642 2.90897 14.6261 2.91327 14.3854C2.91327 13.7106 3.37009 12.361 5.64225 12.361V12.361Z" fill="white"/>
</svg>
