<svg width="20" height="20" viewBox="0 0 20 20" fill="none" xmlns="http://www.w3.org/2000/svg">
<path d="M0 10C0 11.9778 0.58649 13.9112 1.6853 15.5557C2.78412 17.2002 4.3459 18.4819 6.17317 19.2388C8.00043 19.9957 10.0111 20.1937 11.9509 19.8078C13.8907 19.422 15.6725 18.4696 17.0711 17.0711C18.4696 15.6725 19.422 13.8907 19.8079 11.9509C20.1937 10.0111 19.9957 8.00042 19.2388 6.17316C18.4819 4.3459 17.2002 2.78411 15.5557 1.6853C13.9112 0.586487 11.9778 -3.8147e-06 10 -3.8147e-06C7.34873 0.00290778 4.80688 1.05741 2.93215 2.93214C1.05742 4.80688 0.0029116 7.34872 0 10V10ZM18 10C18 11.5822 17.5308 13.129 16.6518 14.4446C15.7727 15.7602 14.5233 16.7855 13.0615 17.391C11.5997 17.9965 9.99113 18.155 8.43928 17.8463C6.88743 17.5376 5.46197 16.7757 4.34315 15.6568C3.22433 14.538 2.4624 13.1126 2.15372 11.5607C1.84504 10.0089 2.00346 8.40034 2.60896 6.93853C3.21447 5.47672 4.23984 4.22729 5.55544 3.34824C6.87103 2.46919 8.41775 2 10 2C12.121 2.00238 14.1544 2.846 15.6542 4.34577C17.154 5.84555 17.9976 7.87899 18 10V10Z" fill="#FFAB00"/>
<path d="M0 10C0 11.9778 0.58649 13.9112 1.6853 15.5557C2.78412 17.2002 4.3459 18.4819 6.17317 19.2388C8.00043 19.9957 10.0111 20.1937 11.9509 19.8078C13.8907 19.422 15.6725 18.4696 17.0711 17.0711C18.4696 15.6725 19.422 13.8907 19.8079 11.9509C20.1937 10.0111 19.9957 8.00042 19.2388 6.17316C18.4819 4.3459 17.2002 2.78411 15.5557 1.6853C13.9112 0.586487 11.9778 -3.8147e-06 10 -3.8147e-06C7.34873 0.00290778 4.80688 1.05741 2.93215 2.93214C1.05742 4.80688 0.0029116 7.34872 0 10V10ZM18 10C18 11.5822 17.5308 13.129 16.6518 14.4446C15.7727 15.7602 14.5233 16.7855 13.0615 17.391C11.5997 17.9965 9.99113 18.155 8.43928 17.8463C6.88743 17.5376 5.46197 16.7757 4.34315 15.6568C3.22433 14.538 2.4624 13.1126 2.15372 11.5607C1.84504 10.0089 2.00346 8.40034 2.60896 6.93853C3.21447 5.47672 4.23984 4.22729 5.55544 3.34824C6.87103 2.46919 8.41775 2 10 2C12.121 2.00238 14.1544 2.846 15.6542 4.34577C17.154 5.84555 17.9976 7.87899 18 10V10Z" fill="#FFAB00"/>
<path d="M5.29297 8.707L9.99997 13.414L14.707 8.707L13.293 7.293L9.99997 10.586L6.70697 7.293L5.29297 8.707Z" fill="#FFAB00"/>
</svg>
