<svg  height="35" viewBox="0 0 35 35" fill="none" xmlns="http://www.w3.org/2000/svg">
<path d="M16.5836 6.27227L17.3539 7.13256L18.0953 6.24717C18.3141 5.98588 18.5241 5.73206 18.7275 5.48623C20.7278 3.06854 22.0882 1.4243 24.8628 1.05726C30.5879 0.311571 36.2017 7.1511 33.1403 14.1421L33.1402 14.1423C32.2554 16.1641 30.4105 18.6456 28.2775 21.1709L28.2773 21.1711C26.8076 22.9119 25.2647 24.6024 23.8586 26.1429C23.0211 27.0604 22.2321 27.9247 21.5361 28.7149L17.3202 33.5001L13.9769 29.8182C13.9768 29.8181 13.9767 29.8181 13.9767 29.818C13.1619 28.9201 12.285 28.0055 11.383 27.0646C9.47574 25.0751 7.456 22.9683 5.67227 20.6549C3.06687 17.2758 1.13771 13.6554 1.00518 9.73108C0.842588 4.33044 4.51124 1.04224 8.60504 1.10148C12.0338 1.15477 13.5598 2.8717 16.0098 5.62827C16.1953 5.83706 16.3862 6.05182 16.5836 6.27227Z" stroke="black" stroke-width="2"/>
</svg>
