<svg width="40" height="40" viewBox="0 0 40 40" fill="none" xmlns="http://www.w3.org/2000/svg">
<path d="M36.7691 3.71353C34.6746 1.33108 31.9016 0.0289367 28.9421 0.0289367C25.9826 0.0289367 23.2012 1.34073 21.1066 3.72317L20.0127 4.96745L18.9019 3.70388C16.8073 1.32144 14.0174 0 11.0579 0C8.10688 0 5.32545 1.31179 3.23939 3.68459C1.14484 6.06704 -0.00843351 9.23077 4.64338e-05 12.5971C4.64338e-05 15.9633 1.1618 19.1174 3.25635 21.4999L19.1817 39.6142C19.4022 39.865 19.699 40 19.9873 40C20.2756 40 20.5724 39.8746 20.7929 39.6238L36.7521 21.5385C38.8467 19.156 40 15.9923 40 12.626C40.0084 9.25971 38.8637 6.09597 36.7691 3.71353ZM35.141 19.6962L19.9873 36.8652L4.86754 19.6672C3.20547 17.7767 2.28963 15.2689 2.28963 12.5971C2.28963 9.92525 3.19699 7.41741 4.85906 5.53653C6.51265 3.65566 8.71743 2.61394 11.0579 2.61394C13.4068 2.61394 15.6201 3.65565 17.2822 5.54618L19.1986 7.72607C19.6481 8.23728 20.3689 8.23728 20.8183 7.72607L22.7178 5.56547C24.3799 3.67495 26.5932 2.63323 28.9336 2.63323C31.2741 2.63323 33.4789 3.67495 35.141 5.55582C36.803 7.44635 37.7104 9.95418 37.7104 12.626C37.7189 15.2978 36.803 17.8056 35.141 19.6962Z" fill="black"/>
</svg>
