<svg width="24" height="24" viewBox="0 0 24 24" fill="none" xmlns="http://www.w3.org/2000/svg">
<path d="M17.3767 0H6.62299C2.97108 0 0 2.97122 0 6.62313V17.3769C0 21.0289 2.97108 24 6.62299 24H17.3767C21.0289 24 24 21.0288 24 17.3769V6.62313C24.0001 2.97122 21.0289 0 17.3767 0ZM21.8707 17.3769C21.8707 19.8548 19.8548 21.8706 17.3769 21.8706H6.62299C4.14522 21.8707 2.1294 19.8548 2.1294 17.3769V6.62313C2.1294 4.14537 4.14522 2.1294 6.62299 2.1294H17.3767C19.8546 2.1294 21.8706 4.14537 21.8706 6.62313V17.3769H21.8707Z" fill="white"/>
<path d="M12.0001 5.8161C8.5901 5.8161 5.81592 8.59028 5.81592 12.0003C5.81592 15.4102 8.5901 18.1842 12.0001 18.1842C15.4101 18.1842 18.1843 15.4102 18.1843 12.0003C18.1843 8.59028 15.4101 5.8161 12.0001 5.8161ZM12.0001 16.0547C9.76439 16.0547 7.94531 14.2359 7.94531 12.0002C7.94531 9.76429 9.76425 7.94536 12.0001 7.94536C14.236 7.94536 16.0549 9.76429 16.0549 12.0002C16.0549 14.2359 14.2358 16.0547 12.0001 16.0547Z" fill="white"/>
<path d="M18.4434 4.0105C18.0331 4.0105 17.6301 4.17659 17.3404 4.46761C17.0492 4.75721 16.8818 5.16037 16.8818 5.57206C16.8818 5.98246 17.0493 6.38548 17.3404 6.6765C17.63 6.9661 18.0331 7.13361 18.4434 7.13361C18.8551 7.13361 19.2568 6.9661 19.5478 6.6765C19.8389 6.38548 20.005 5.98232 20.005 5.57206C20.005 5.16037 19.8389 4.75721 19.5478 4.46761C19.2582 4.17659 18.8551 4.0105 18.4434 4.0105Z" fill="white"/>
</svg>
