<svg width="30" height="20" viewBox="0 0 30 20" fill="none" xmlns="http://www.w3.org/2000/svg">
<path d="M0.90907 1.81814H28.1819C28.6837 1.81814 29.0909 1.41083 29.0909 0.90907C29.0909 0.40723 28.6836 0 28.1819 0H0.90907C0.407306 0 0 0.40723 0 0.90907C0 1.41091 0.407306 1.81814 0.90907 1.81814Z" fill="black"/>
<path d="M28.1819 9.09094H0.90907C0.40723 9.09094 0 9.49825 0 10C0 10.5018 0.407306 10.9091 0.90907 10.9091H28.1819C28.6837 10.9091 29.0909 10.5018 29.0909 10C29.0909 9.49825 28.6837 9.09094 28.1819 9.09094Z" fill="black"/>
<path d="M28.1819 18.1819H0.90907C0.40723 18.1819 0 18.5892 0 19.0909C0 19.5928 0.407306 20 0.90907 20H28.1819C28.6837 20 29.0909 19.5927 29.0909 19.0909C29.091 18.5891 28.6837 18.1819 28.1819 18.1819Z" fill="black"/>
</svg>
