<svg width="20" height="20" viewBox="0 0 20 20" fill="none" xmlns="http://www.w3.org/2000/svg">
<path d="M8.4 1.20001C4.64062 1.20001 1.6 4.24064 1.6 8.00001C1.6 11.7594 4.64062 14.8 8.4 14.8C9.74219 14.8 10.9844 14.4063 12.0375 13.7375L16.95 18.65L18.65 16.95L13.8 12.1125C14.6719 10.9688 15.2 9.55157 15.2 8.00001C15.2 4.24064 12.1594 1.20001 8.4 1.20001ZM8.4 2.80001C11.2797 2.80001 13.6 5.12032 13.6 8.00001C13.6 10.8797 11.2797 13.2 8.4 13.2C5.52031 13.2 3.2 10.8797 3.2 8.00001C3.2 5.12032 5.52031 2.80001 8.4 2.80001Z" fill="black"/>
</svg>
